<svg xmlns="http://www.w3.org/2000/svg" clip-rule="evenodd" width="841.3793102994687" height="168" style=""><rect id="backgroundrect" width="100%" height="100%" x="0" y="0" fill="none" stroke="none" class="" style=""/>
<g style="" class="currentLayer">
<title>Layer 1</title>
<g id="svg_1" class="">
<g stroke-width="0" id="svg_2">
<ellipse cx="737.7869656168837" cy="364.6953690737505" rx="77.0230026245117" ry="74.53500366210936" fill="#ed502d" transform="matrix(1.0891179039999999,0,0,1.1254773599999999,-719.6498559999999,-326.5689119999999) " stroke-width="0" id="svg_3"/>
</g>
<g stroke-width="0" id="svg_4">
<path d="m129.07623236318105,41.61931056507337 c7.3581759999999985,0 13.326208,6.10840011264 13.326208,13.6381071792 c-0.0014965020000000011,7.529707066559999 -5.969529999999999,13.6381071792 -13.326208,13.6381071792 c-7.355179999999999,0 -13.321713999999998,-6.10840011264 -13.321713999999998,-13.6381071792 c-0.0029945020000000035,-7.529707066559999 5.963537999999999,-13.6381071792 13.321713999999998,-13.6381071792 " fill="#fff" stroke-width="0" id="svg_5"/>
</g>
<g stroke-width="0" id="svg_6">
<path d="m83.88307036318106,34.764226000913375 c8.550583999999999,0 15.484825999999996,7.0988686048 15.484825999999996,15.847495874560002 c-0.0014965020000000011,8.75169373568 -6.934241999999999,15.84902910752 -15.484825999999996,15.84902910752 c-8.549085999999999,0 -15.480331999999997,-7.097335371840001 -15.480331999999997,-15.84902910752 c-0.0029945020000000035,-8.748627269760002 6.929747999999999,-15.847495874560002 15.480331999999997,-15.847495874560002 " fill="#fff" stroke-width="0" id="svg_7"/>
</g>
<g stroke-width="0" id="svg_8">
<path d="m38.68841036318107,41.61931056507337 c7.3581759999999985,0 13.324709999999998,6.10840011264 13.324709999999998,13.6381071792 c-0.0014965020000000011,7.529707066559999 -5.968031999999999,13.6381071792 -13.324709999999998,13.6381071792 s-13.323211999999998,-6.10840011264 -13.323211999999998,-13.6381071792 c-0.0014994980000000012,-7.529707066559999 5.965036,-13.6381071792 13.323211999999998,-13.6381071792 " fill="#fff" stroke-width="0" id="svg_9"/>
</g>
<g stroke-width="0" id="svg_10">
<path d="m55.40309436318107,96.55811398779336 l0.05392650200000002,0.4200904987104002 l-7.340199999999999,5.34178363264 c-0.4464040000000003,-6.82441990496 -0.4763640000000002,-13.730101156800002 0.37000600000000017,-20.01022336096 l-0.963214,-0.14105589908704014 c-0.8928080000000006,6.52697271072 -0.8313900000000003,13.73623408864 -0.3415440000000002,20.830502994560003 l-0.03295450200000001,0.024553192621440026 l2.2934379999999996,20.35980047584 c-5.965036,3.6751594051200005 -15.543247999999997,3.6751594051200005 -21.509781999999998,0 l2.294936,-20.35980047584 l-0.03295450200000001,-0.024553192621440026 c0.48984600000000017,-7.09426890592 0.551264,-14.303530283840002 -0.3415440000000002,-20.830502994560003 l-0.963214,0.14105589908704014 c0.8478680000000003,6.28012220416 0.814912,13.185803456 0.37150400000000017,20.01022336096 l-7.341697999999998,-5.34178363264 c1.1939060000000001,-5.49970662752 -0.5842200000000003,-16.166408330240003 -2.2125459999999997,-22.671915779520003 c13.708197999999998,-3.7625536838400007 24.543231999999996,-3.6889585017600006 37.960817999999996,0 c-1.6313219999999997,7.9804775568 -3.289608,14.2284018688 -2.264976,22.251809948480002 " fill="#fff" stroke-width="0" id="svg_11"/>
</g>
<g stroke-width="0" id="svg_12">
<path d="m103.36755636318105,99.09561453659337 l-8.529611999999998,6.20652702208 c-0.5168100000000001,-7.9283476361600025 -0.552762,-15.9532889488 0.4299260000000003,-23.2514778384 l-1.11601,-0.16252269376000014 c-1.0411100000000002,7.584903453120001 -0.969206,15.96248834656 -0.3999660000000003,24.206681972480002 l-0.037452996,0.027595126814080044 l2.6679380000000004,23.659317805760004 c-6.9327440000000005,4.270053793600001 -18.067377999999998,4.270053793600001 -24.998623999999996,0 l2.6679380000000004,-23.659317805760004 l-0.03894949800000001,-0.029139092404800008 c0.5707380000000003,-8.242660392960001 0.6396460000000004,-16.6202452864 -0.3969700000000003,-24.205148739520002 l-1.119006,0.16252269376000014 c0.9841859999999998,7.2981888896000005 0.946736,15.32313020224 0.4314240000000003,23.253011071360003 l-8.53111,-6.208060255040001 c1.3706699999999998,-6.3153865622400005 -0.665112,-18.84189984544 -2.5720659999999995,-26.347075184640005 c15.943214,-4.37124716896 28.506939999999997,-4.28231965728 44.114602,0 c-2.3623459999999996,9.30059113536 -3.5158059999999995,17.65364430144 -2.5720659999999995,26.347075184640005 " fill="#fff" stroke-width="0" id="svg_13"/>
</g>
<g stroke-width="0" id="svg_14">
<path d="m145.84484436318107,96.97821981883337 l-7.340199999999999,5.34025039968 c-0.4464040000000003,-6.822886672000001 -0.4778620000000002,-13.728567923840002 0.37000600000000017,-20.008690128 l-0.960218,-0.14107276464959995 c-0.894306,6.52697271072 -0.834386,13.73623408864 -0.3430420000000002,20.830502994560003 l-0.03594301200000001,0.024540926757760022 l2.2964339999999996,20.35980047584 c-5.968031999999999,3.6751594051200005 -15.541749999999997,3.6751594051200005 -21.511279999999996,0 l2.294936,-20.35980047584 l-0.031474478,-0.024540926757760022 c0.48984600000000017,-7.09426890592 0.549766,-14.303530283840002 -0.3430420000000002,-20.830502994560003 l-0.96173098,0.14107276464959995 c0.8478530200000004,6.28012220416 0.813414,13.185803456 0.37150400000000017,20.01022336096 l-7.341697999999998,-5.34178363264 c1.1954040000000001,-5.505839559360001 -0.5857180000000004,-16.1602753984 -2.2140439999999995,-22.673449012480003 c13.721679999999997,-3.76562014976 24.535742,-3.6828255699200003 37.962315999999994,0 c-2.025296,8.103136193600001 -3.0394419999999993,15.07321322976 -2.2125459999999997,22.673449012480003 " fill="#fff" stroke-width="0" id="svg_15"/>
</g>
</g>
<text transform="matrix(1.0824,0,0,0.9193,-13.321,2.4399) " x="181.1824356622146" y="120.59456659727329" fill="#fff" font-family="'Trebuchet MS', Gadget, sans-serif" font-size="92" stroke="#fff" stroke-width="0" xml:space="preserve" id="svg_16" class="">COLIVING.COM</text>
</g>
</svg>