<svg width="475.044" height="475.044" xmlns="http://www.w3.org/2000/svg">
 <g>
  <title>background</title>
  <rect x="-1" y="-1" width="477.044" height="477.044" id="canvas_background" fill="none"/>
 </g>

 <g>
  <title>Layer 1</title>
  <g stroke="null" id="svg_1">
   <path stroke="null" d="m461.513957,186.05076c-1.628159,-5.016432 -6.520249,-8.16272 -14.663899,-9.437906l-136.383777,-19.965132l-61.124003,-124.457531c-3.806333,-7.476745 -8.241663,-11.213202 -13.311699,-11.213202c-5.251788,0 -9.689973,3.736456 -13.310748,11.213202l-61.130664,124.457531l-136.384729,19.965132c-8.14936,1.276144 -13.040498,4.421473 -14.668657,9.437906c-1.626256,5.016432 0.454857,10.441001 6.249048,16.276579l98.892346,96.829789l-23.364225,136.762927c-0.904004,6.022401 -0.362553,10.704469 1.631965,14.085483c1.990712,3.376224 5.071939,5.061461 9.237019,5.061461c3.080275,0 6.702001,-1.092195 10.867082,-3.28904l121.987273,-64.556386l121.983467,64.556386c4.16508,2.190138 7.789661,3.28904 10.869936,3.28904c4.168887,0 7.252968,-1.685238 9.238923,-5.061461c1.986906,-3.381014 2.53026,-8.063081 1.625304,-14.085483l-23.362322,-136.762927l98.61258,-96.829789c5.97975,-5.835578 8.151263,-11.260147 6.509782,-16.276579zm-129.310658,87.939897l-13.312651,12.8582l3.263931,18.052833l16.298719,97.10667l-86.390444,-45.953624l-16.032276,-8.48463l0,-263.408681l43.197125,88.077858l8.144602,16.40975l17.937346,2.736236l96.720832,14.221528l-69.827184,68.383859z" id="svg_2" fill="#ffffff"/>
  </g>
  <g id="svg_3"/>
  <g id="svg_4"/>
  <g id="svg_5"/>
  <g id="svg_6"/>
  <g id="svg_7"/>
  <g id="svg_8"/>
  <g id="svg_9"/>
  <g id="svg_10"/>
  <g id="svg_11"/>
  <g id="svg_12"/>
  <g id="svg_13"/>
  <g id="svg_14"/>
  <g id="svg_15"/>
  <g id="svg_16"/>
  <g id="svg_17"/>
 </g>
</svg>